<?xml version="1.0" encoding="utf-8" standalone="no"?>
<!DOCTYPE svg PUBLIC "-//W3C//DTD SVG 1.1//EN"
  "http://www.w3.org/Graphics/SVG/1.1/DTD/svg11.dtd">
<svg xmlns:xlink="http://www.w3.org/1999/xlink" width="521.334702pt" height="305.374375pt" viewBox="0 0 521.334702 305.374375" xmlns="http://www.w3.org/2000/svg" version="1.1">
 <metadata>
  <rdf:RDF xmlns:dc="http://purl.org/dc/elements/1.1/" xmlns:cc="http://creativecommons.org/ns#" xmlns:rdf="http://www.w3.org/1999/02/22-rdf-syntax-ns#">
   <cc:Work>
    <dc:type rdf:resource="http://purl.org/dc/dcmitype/StillImage"/>
    <dc:date>2026-05-26T23:30:55.783491</dc:date>
    <dc:format>image/svg+xml</dc:format>
    <dc:creator>
     <cc:Agent>
      <dc:title>Matplotlib v3.10.7, https://matplotlib.org/</dc:title>
     </cc:Agent>
    </dc:creator>
   </cc:Work>
  </rdf:RDF>
 </metadata>
 <defs>
  <style type="text/css">*{stroke-linejoin: round; stroke-linecap: butt}</style>
 </defs>
 <g id="figure_1">
  <g id="patch_1">
   <path d="M 0 305.374375 
L 521.334702 305.374375 
L 521.334702 0 
L 0 0 
z
" style="fill: #ffffff"/>
  </g>
  <g id="axes_1">
   <g id="patch_2">
    <path d="M 40.298438 267.818125 
L 465.625937 267.818125 
L 465.625937 22.318125 
L 40.298438 22.318125 
z
" style="fill: #ffffff"/>
   </g>
   <g id="line2d_1">
    <path d="M 40.298438 252.474375 
L 465.625937 252.474375 
" clip-path="url(#p7953be13de)" style="fill: none; stroke-dasharray: 1.2,1.98; stroke-dashoffset: 0; stroke: #9ca3af; stroke-width: 1.2"/>
   </g>
   <g id="patch_3">
    <path d="M 182.074271 267.818125 
L 249.586572 267.818125 
L 249.586572 22.318125 
L 182.074271 22.318125 
z
" clip-path="url(#p7953be13de)" style="fill: #fef3c7; opacity: 0.45; stroke: #fef3c7; stroke-linejoin: miter"/>
   </g>
   <g id="matplotlib.axis_1">
    <g id="xtick_1">
     <g id="line2d_2">
      <path d="M 47.049668 267.818125 
L 47.049668 22.318125 
" clip-path="url(#p7953be13de)" style="fill: none; stroke: #f3f4f6; stroke-width: 0.6; stroke-linecap: square"/>
     </g>
     <g id="line2d_3">
      <defs>
       <path id="mf50ba254d3" d="M 0 0 
L 0 3.5 
" style="stroke: #000000; stroke-width: 0.8"/>
      </defs>
      <g>
       <use xlink:href="#mf50ba254d3" x="47.049668" y="267.818125" style="stroke: #000000; stroke-width: 0.8"/>
      </g>
     </g>
     <g id="text_1">
      <!-- −10 -->
      <g transform="translate(37.552558 281.656719) scale(0.09 -0.09)">
       <defs>
        <path id="DejaVuSans-2212" d="M 678 2272 
L 4684 2272 
L 4684 1741 
L 678 1741 
L 678 2272 
z
" transform="scale(0.015625)"/>
        <path id="DejaVuSans-31" d="M 794 531 
L 1825 531 
L 1825 4091 
L 703 3866 
L 703 4441 
L 1819 4666 
L 2450 4666 
L 2450 531 
L 3481 531 
L 3481 0 
L 794 0 
L 794 531 
z
" transform="scale(0.015625)"/>
        <path id="DejaVuSans-30" d="M 2034 4250 
Q 1547 4250 1301 3770 
Q 1056 3291 1056 2328 
Q 1056 1369 1301 889 
Q 1547 409 2034 409 
Q 2525 409 2770 889 
Q 3016 1369 3016 2328 
Q 3016 3291 2770 3770 
Q 2525 4250 2034 4250 
z
M 2034 4750 
Q 2819 4750 3233 4129 
Q 3647 3509 3647 2328 
Q 3647 1150 3233 529 
Q 2819 -91 2034 -91 
Q 1250 -91 836 529 
Q 422 1150 422 2328 
Q 422 3509 836 4129 
Q 1250 4750 2034 4750 
z
" transform="scale(0.015625)"/>
       </defs>
       <use xlink:href="#DejaVuSans-2212"/>
       <use xlink:href="#DejaVuSans-31" transform="translate(83.789062 0)"/>
       <use xlink:href="#DejaVuSans-30" transform="translate(147.412109 0)"/>
      </g>
     </g>
    </g>
    <g id="xtick_2">
     <g id="line2d_4">
      <path d="M 114.561969 267.818125 
L 114.561969 22.318125 
" clip-path="url(#p7953be13de)" style="fill: none; stroke: #f3f4f6; stroke-width: 0.6; stroke-linecap: square"/>
     </g>
     <g id="line2d_5">
      <g>
       <use xlink:href="#mf50ba254d3" x="114.561969" y="267.818125" style="stroke: #000000; stroke-width: 0.8"/>
      </g>
     </g>
     <g id="text_2">
      <!-- −5 -->
      <g transform="translate(107.927985 281.656719) scale(0.09 -0.09)">
       <defs>
        <path id="DejaVuSans-35" d="M 691 4666 
L 3169 4666 
L 3169 4134 
L 1269 4134 
L 1269 2991 
Q 1406 3038 1543 3061 
Q 1681 3084 1819 3084 
Q 2600 3084 3056 2656 
Q 3513 2228 3513 1497 
Q 3513 744 3044 326 
Q 2575 -91 1722 -91 
Q 1428 -91 1123 -41 
Q 819 9 494 109 
L 494 744 
Q 775 591 1075 516 
Q 1375 441 1709 441 
Q 2250 441 2565 725 
Q 2881 1009 2881 1497 
Q 2881 1984 2565 2268 
Q 2250 2553 1709 2553 
Q 1456 2553 1204 2497 
Q 953 2441 691 2322 
L 691 4666 
z
" transform="scale(0.015625)"/>
       </defs>
       <use xlink:href="#DejaVuSans-2212"/>
       <use xlink:href="#DejaVuSans-35" transform="translate(83.789062 0)"/>
      </g>
     </g>
    </g>
    <g id="xtick_3">
     <g id="line2d_6">
      <path d="M 182.074271 267.818125 
L 182.074271 22.318125 
" clip-path="url(#p7953be13de)" style="fill: none; stroke: #f3f4f6; stroke-width: 0.6; stroke-linecap: square"/>
     </g>
     <g id="line2d_7">
      <g>
       <use xlink:href="#mf50ba254d3" x="182.074271" y="267.818125" style="stroke: #000000; stroke-width: 0.8"/>
      </g>
     </g>
     <g id="text_3">
      <!-- 0 -->
      <g transform="translate(179.211146 281.656719) scale(0.09 -0.09)">
       <use xlink:href="#DejaVuSans-30"/>
      </g>
     </g>
    </g>
    <g id="xtick_4">
     <g id="line2d_8">
      <path d="M 195.576731 267.818125 
L 195.576731 22.318125 
" clip-path="url(#p7953be13de)" style="fill: none; stroke: #f3f4f6; stroke-width: 0.6; stroke-linecap: square"/>
     </g>
     <g id="line2d_9">
      <g>
       <use xlink:href="#mf50ba254d3" x="195.576731" y="267.818125" style="stroke: #000000; stroke-width: 0.8"/>
      </g>
     </g>
     <g id="text_4">
      <!-- 1 -->
      <g transform="translate(192.713606 281.656719) scale(0.09 -0.09)">
       <use xlink:href="#DejaVuSans-31"/>
      </g>
     </g>
    </g>
    <g id="xtick_5">
     <g id="line2d_10">
      <path d="M 209.079191 267.818125 
L 209.079191 22.318125 
" clip-path="url(#p7953be13de)" style="fill: none; stroke: #f3f4f6; stroke-width: 0.6; stroke-linecap: square"/>
     </g>
     <g id="line2d_11">
      <g>
       <use xlink:href="#mf50ba254d3" x="209.079191" y="267.818125" style="stroke: #000000; stroke-width: 0.8"/>
      </g>
     </g>
     <g id="text_5">
      <!-- 2 -->
      <g transform="translate(206.216066 281.656719) scale(0.09 -0.09)">
       <defs>
        <path id="DejaVuSans-32" d="M 1228 531 
L 3431 531 
L 3431 0 
L 469 0 
L 469 531 
Q 828 903 1448 1529 
Q 2069 2156 2228 2338 
Q 2531 2678 2651 2914 
Q 2772 3150 2772 3378 
Q 2772 3750 2511 3984 
Q 2250 4219 1831 4219 
Q 1534 4219 1204 4116 
Q 875 4013 500 3803 
L 500 4441 
Q 881 4594 1212 4672 
Q 1544 4750 1819 4750 
Q 2544 4750 2975 4387 
Q 3406 4025 3406 3419 
Q 3406 3131 3298 2873 
Q 3191 2616 2906 2266 
Q 2828 2175 2409 1742 
Q 1991 1309 1228 531 
z
" transform="scale(0.015625)"/>
       </defs>
       <use xlink:href="#DejaVuSans-32"/>
      </g>
     </g>
    </g>
    <g id="xtick_6">
     <g id="line2d_12">
      <path d="M 222.581652 267.818125 
L 222.581652 22.318125 
" clip-path="url(#p7953be13de)" style="fill: none; stroke: #f3f4f6; stroke-width: 0.6; stroke-linecap: square"/>
     </g>
     <g id="line2d_13">
      <g>
       <use xlink:href="#mf50ba254d3" x="222.581652" y="267.818125" style="stroke: #000000; stroke-width: 0.8"/>
      </g>
     </g>
     <g id="text_6">
      <!-- 3 -->
      <g transform="translate(219.718527 281.656719) scale(0.09 -0.09)">
       <defs>
        <path id="DejaVuSans-33" d="M 2597 2516 
Q 3050 2419 3304 2112 
Q 3559 1806 3559 1356 
Q 3559 666 3084 287 
Q 2609 -91 1734 -91 
Q 1441 -91 1130 -33 
Q 819 25 488 141 
L 488 750 
Q 750 597 1062 519 
Q 1375 441 1716 441 
Q 2309 441 2620 675 
Q 2931 909 2931 1356 
Q 2931 1769 2642 2001 
Q 2353 2234 1838 2234 
L 1294 2234 
L 1294 2753 
L 1863 2753 
Q 2328 2753 2575 2939 
Q 2822 3125 2822 3475 
Q 2822 3834 2567 4026 
Q 2313 4219 1838 4219 
Q 1578 4219 1281 4162 
Q 984 4106 628 3988 
L 628 4550 
Q 988 4650 1302 4700 
Q 1616 4750 1894 4750 
Q 2613 4750 3031 4423 
Q 3450 4097 3450 3541 
Q 3450 3153 3228 2886 
Q 3006 2619 2597 2516 
z
" transform="scale(0.015625)"/>
       </defs>
       <use xlink:href="#DejaVuSans-33"/>
      </g>
     </g>
    </g>
    <g id="xtick_7">
     <g id="line2d_14">
      <path d="M 236.084112 267.818125 
L 236.084112 22.318125 
" clip-path="url(#p7953be13de)" style="fill: none; stroke: #f3f4f6; stroke-width: 0.6; stroke-linecap: square"/>
     </g>
     <g id="line2d_15">
      <g>
       <use xlink:href="#mf50ba254d3" x="236.084112" y="267.818125" style="stroke: #000000; stroke-width: 0.8"/>
      </g>
     </g>
     <g id="text_7">
      <!-- 4 -->
      <g transform="translate(233.220987 281.656719) scale(0.09 -0.09)">
       <defs>
        <path id="DejaVuSans-34" d="M 2419 4116 
L 825 1625 
L 2419 1625 
L 2419 4116 
z
M 2253 4666 
L 3047 4666 
L 3047 1625 
L 3713 1625 
L 3713 1100 
L 3047 1100 
L 3047 0 
L 2419 0 
L 2419 1100 
L 313 1100 
L 313 1709 
L 2253 4666 
z
" transform="scale(0.015625)"/>
       </defs>
       <use xlink:href="#DejaVuSans-34"/>
      </g>
     </g>
    </g>
    <g id="xtick_8">
     <g id="line2d_16">
      <path d="M 249.586572 267.818125 
L 249.586572 22.318125 
" clip-path="url(#p7953be13de)" style="fill: none; stroke: #f3f4f6; stroke-width: 0.6; stroke-linecap: square"/>
     </g>
     <g id="line2d_17">
      <g>
       <use xlink:href="#mf50ba254d3" x="249.586572" y="267.818125" style="stroke: #000000; stroke-width: 0.8"/>
      </g>
     </g>
     <g id="text_8">
      <!-- 5 -->
      <g transform="translate(246.723447 281.656719) scale(0.09 -0.09)">
       <use xlink:href="#DejaVuSans-35"/>
      </g>
     </g>
    </g>
    <g id="xtick_9">
     <g id="line2d_18">
      <path d="M 317.098874 267.818125 
L 317.098874 22.318125 
" clip-path="url(#p7953be13de)" style="fill: none; stroke: #f3f4f6; stroke-width: 0.6; stroke-linecap: square"/>
     </g>
     <g id="line2d_19">
      <g>
       <use xlink:href="#mf50ba254d3" x="317.098874" y="267.818125" style="stroke: #000000; stroke-width: 0.8"/>
      </g>
     </g>
     <g id="text_9">
      <!-- 10 -->
      <g transform="translate(311.372624 281.656719) scale(0.09 -0.09)">
       <use xlink:href="#DejaVuSans-31"/>
       <use xlink:href="#DejaVuSans-30" transform="translate(63.623047 0)"/>
      </g>
     </g>
    </g>
    <g id="xtick_10">
     <g id="line2d_20">
      <path d="M 384.611176 267.818125 
L 384.611176 22.318125 
" clip-path="url(#p7953be13de)" style="fill: none; stroke: #f3f4f6; stroke-width: 0.6; stroke-linecap: square"/>
     </g>
     <g id="line2d_21">
      <g>
       <use xlink:href="#mf50ba254d3" x="384.611176" y="267.818125" style="stroke: #000000; stroke-width: 0.8"/>
      </g>
     </g>
     <g id="text_10">
      <!-- 15 -->
      <g transform="translate(378.884926 281.656719) scale(0.09 -0.09)">
       <use xlink:href="#DejaVuSans-31"/>
       <use xlink:href="#DejaVuSans-35" transform="translate(63.623047 0)"/>
      </g>
     </g>
    </g>
    <g id="xtick_11">
     <g id="line2d_22">
      <path d="M 452.123477 267.818125 
L 452.123477 22.318125 
" clip-path="url(#p7953be13de)" style="fill: none; stroke: #f3f4f6; stroke-width: 0.6; stroke-linecap: square"/>
     </g>
     <g id="line2d_23">
      <g>
       <use xlink:href="#mf50ba254d3" x="452.123477" y="267.818125" style="stroke: #000000; stroke-width: 0.8"/>
      </g>
     </g>
     <g id="text_11">
      <!-- 20 -->
      <g transform="translate(446.397227 281.656719) scale(0.09 -0.09)">
       <use xlink:href="#DejaVuSans-32"/>
       <use xlink:href="#DejaVuSans-30" transform="translate(63.623047 0)"/>
      </g>
     </g>
    </g>
    <g id="text_12">
     <!-- Test SNR (dB) -->
     <g transform="translate(215.651562 295.886719) scale(0.11 -0.11)">
      <defs>
       <path id="DejaVuSans-54" d="M -19 4666 
L 3928 4666 
L 3928 4134 
L 2272 4134 
L 2272 0 
L 1638 0 
L 1638 4134 
L -19 4134 
L -19 4666 
z
" transform="scale(0.015625)"/>
       <path id="DejaVuSans-65" d="M 3597 1894 
L 3597 1613 
L 953 1613 
Q 991 1019 1311 708 
Q 1631 397 2203 397 
Q 2534 397 2845 478 
Q 3156 559 3463 722 
L 3463 178 
Q 3153 47 2828 -22 
Q 2503 -91 2169 -91 
Q 1331 -91 842 396 
Q 353 884 353 1716 
Q 353 2575 817 3079 
Q 1281 3584 2069 3584 
Q 2775 3584 3186 3129 
Q 3597 2675 3597 1894 
z
M 3022 2063 
Q 3016 2534 2758 2815 
Q 2500 3097 2075 3097 
Q 1594 3097 1305 2825 
Q 1016 2553 972 2059 
L 3022 2063 
z
" transform="scale(0.015625)"/>
       <path id="DejaVuSans-73" d="M 2834 3397 
L 2834 2853 
Q 2591 2978 2328 3040 
Q 2066 3103 1784 3103 
Q 1356 3103 1142 2972 
Q 928 2841 928 2578 
Q 928 2378 1081 2264 
Q 1234 2150 1697 2047 
L 1894 2003 
Q 2506 1872 2764 1633 
Q 3022 1394 3022 966 
Q 3022 478 2636 193 
Q 2250 -91 1575 -91 
Q 1294 -91 989 -36 
Q 684 19 347 128 
L 347 722 
Q 666 556 975 473 
Q 1284 391 1588 391 
Q 1994 391 2212 530 
Q 2431 669 2431 922 
Q 2431 1156 2273 1281 
Q 2116 1406 1581 1522 
L 1381 1569 
Q 847 1681 609 1914 
Q 372 2147 372 2553 
Q 372 3047 722 3315 
Q 1072 3584 1716 3584 
Q 2034 3584 2315 3537 
Q 2597 3491 2834 3397 
z
" transform="scale(0.015625)"/>
       <path id="DejaVuSans-74" d="M 1172 4494 
L 1172 3500 
L 2356 3500 
L 2356 3053 
L 1172 3053 
L 1172 1153 
Q 1172 725 1289 603 
Q 1406 481 1766 481 
L 2356 481 
L 2356 0 
L 1766 0 
Q 1100 0 847 248 
Q 594 497 594 1153 
L 594 3053 
L 172 3053 
L 172 3500 
L 594 3500 
L 594 4494 
L 1172 4494 
z
" transform="scale(0.015625)"/>
       <path id="DejaVuSans-20" transform="scale(0.015625)"/>
       <path id="DejaVuSans-53" d="M 3425 4513 
L 3425 3897 
Q 3066 4069 2747 4153 
Q 2428 4238 2131 4238 
Q 1616 4238 1336 4038 
Q 1056 3838 1056 3469 
Q 1056 3159 1242 3001 
Q 1428 2844 1947 2747 
L 2328 2669 
Q 3034 2534 3370 2195 
Q 3706 1856 3706 1288 
Q 3706 609 3251 259 
Q 2797 -91 1919 -91 
Q 1588 -91 1214 -16 
Q 841 59 441 206 
L 441 856 
Q 825 641 1194 531 
Q 1563 422 1919 422 
Q 2459 422 2753 634 
Q 3047 847 3047 1241 
Q 3047 1584 2836 1778 
Q 2625 1972 2144 2069 
L 1759 2144 
Q 1053 2284 737 2584 
Q 422 2884 422 3419 
Q 422 4038 858 4394 
Q 1294 4750 2059 4750 
Q 2388 4750 2728 4690 
Q 3069 4631 3425 4513 
z
" transform="scale(0.015625)"/>
       <path id="DejaVuSans-4e" d="M 628 4666 
L 1478 4666 
L 3547 763 
L 3547 4666 
L 4159 4666 
L 4159 0 
L 3309 0 
L 1241 3903 
L 1241 0 
L 628 0 
L 628 4666 
z
" transform="scale(0.015625)"/>
       <path id="DejaVuSans-52" d="M 2841 2188 
Q 3044 2119 3236 1894 
Q 3428 1669 3622 1275 
L 4263 0 
L 3584 0 
L 2988 1197 
Q 2756 1666 2539 1819 
Q 2322 1972 1947 1972 
L 1259 1972 
L 1259 0 
L 628 0 
L 628 4666 
L 2053 4666 
Q 2853 4666 3247 4331 
Q 3641 3997 3641 3322 
Q 3641 2881 3436 2590 
Q 3231 2300 2841 2188 
z
M 1259 4147 
L 1259 2491 
L 2053 2491 
Q 2509 2491 2742 2702 
Q 2975 2913 2975 3322 
Q 2975 3731 2742 3939 
Q 2509 4147 2053 4147 
L 1259 4147 
z
" transform="scale(0.015625)"/>
       <path id="DejaVuSans-28" d="M 1984 4856 
Q 1566 4138 1362 3434 
Q 1159 2731 1159 2009 
Q 1159 1288 1364 580 
Q 1569 -128 1984 -844 
L 1484 -844 
Q 1016 -109 783 600 
Q 550 1309 550 2009 
Q 550 2706 781 3412 
Q 1013 4119 1484 4856 
L 1984 4856 
z
" transform="scale(0.015625)"/>
       <path id="DejaVuSans-64" d="M 2906 2969 
L 2906 4863 
L 3481 4863 
L 3481 0 
L 2906 0 
L 2906 525 
Q 2725 213 2448 61 
Q 2172 -91 1784 -91 
Q 1150 -91 751 415 
Q 353 922 353 1747 
Q 353 2572 751 3078 
Q 1150 3584 1784 3584 
Q 2172 3584 2448 3432 
Q 2725 3281 2906 2969 
z
M 947 1747 
Q 947 1113 1208 752 
Q 1469 391 1925 391 
Q 2381 391 2643 752 
Q 2906 1113 2906 1747 
Q 2906 2381 2643 2742 
Q 2381 3103 1925 3103 
Q 1469 3103 1208 2742 
Q 947 2381 947 1747 
z
" transform="scale(0.015625)"/>
       <path id="DejaVuSans-42" d="M 1259 2228 
L 1259 519 
L 2272 519 
Q 2781 519 3026 730 
Q 3272 941 3272 1375 
Q 3272 1813 3026 2020 
Q 2781 2228 2272 2228 
L 1259 2228 
z
M 1259 4147 
L 1259 2741 
L 2194 2741 
Q 2656 2741 2882 2914 
Q 3109 3088 3109 3444 
Q 3109 3797 2882 3972 
Q 2656 4147 2194 4147 
L 1259 4147 
z
M 628 4666 
L 2241 4666 
Q 2963 4666 3353 4366 
Q 3744 4066 3744 3513 
Q 3744 3084 3544 2831 
Q 3344 2578 2956 2516 
Q 3422 2416 3680 2098 
Q 3938 1781 3938 1306 
Q 3938 681 3513 340 
Q 3088 0 2303 0 
L 628 0 
L 628 4666 
z
" transform="scale(0.015625)"/>
       <path id="DejaVuSans-29" d="M 513 4856 
L 1013 4856 
Q 1481 4119 1714 3412 
Q 1947 2706 1947 2009 
Q 1947 1309 1714 600 
Q 1481 -109 1013 -844 
L 513 -844 
Q 928 -128 1133 580 
Q 1338 1288 1338 2009 
Q 1338 2731 1133 3434 
Q 928 4138 513 4856 
z
" transform="scale(0.015625)"/>
      </defs>
      <use xlink:href="#DejaVuSans-54"/>
      <use xlink:href="#DejaVuSans-65" transform="translate(44.083984 0)"/>
      <use xlink:href="#DejaVuSans-73" transform="translate(105.607422 0)"/>
      <use xlink:href="#DejaVuSans-74" transform="translate(157.707031 0)"/>
      <use xlink:href="#DejaVuSans-20" transform="translate(196.916016 0)"/>
      <use xlink:href="#DejaVuSans-53" transform="translate(228.703125 0)"/>
      <use xlink:href="#DejaVuSans-4e" transform="translate(292.179688 0)"/>
      <use xlink:href="#DejaVuSans-52" transform="translate(366.984375 0)"/>
      <use xlink:href="#DejaVuSans-20" transform="translate(436.466797 0)"/>
      <use xlink:href="#DejaVuSans-28" transform="translate(468.253906 0)"/>
      <use xlink:href="#DejaVuSans-64" transform="translate(507.267578 0)"/>
      <use xlink:href="#DejaVuSans-42" transform="translate(570.744141 0)"/>
      <use xlink:href="#DejaVuSans-29" transform="translate(639.347656 0)"/>
     </g>
    </g>
   </g>
   <g id="matplotlib.axis_2">
    <g id="ytick_1">
     <g id="line2d_24">
      <path d="M 40.298438 252.474375 
L 465.625937 252.474375 
" clip-path="url(#p7953be13de)" style="fill: none; stroke: #e5e7eb; stroke-width: 0.8; stroke-linecap: square"/>
     </g>
     <g id="line2d_25">
      <defs>
       <path id="me2d9d74482" d="M 0 0 
L -3.5 0 
" style="stroke: #000000; stroke-width: 0.8"/>
      </defs>
      <g>
       <use xlink:href="#me2d9d74482" x="40.298438" y="252.474375" style="stroke: #000000; stroke-width: 0.8"/>
      </g>
     </g>
     <g id="text_13">
      <!-- 20 -->
      <g transform="translate(21.845938 255.893672) scale(0.09 -0.09)">
       <use xlink:href="#DejaVuSans-32"/>
       <use xlink:href="#DejaVuSans-30" transform="translate(63.623047 0)"/>
      </g>
     </g>
    </g>
    <g id="ytick_2">
     <g id="line2d_26">
      <path d="M 40.298438 221.786875 
L 465.625937 221.786875 
" clip-path="url(#p7953be13de)" style="fill: none; stroke: #e5e7eb; stroke-width: 0.8; stroke-linecap: square"/>
     </g>
     <g id="line2d_27">
      <g>
       <use xlink:href="#me2d9d74482" x="40.298438" y="221.786875" style="stroke: #000000; stroke-width: 0.8"/>
      </g>
     </g>
     <g id="text_14">
      <!-- 30 -->
      <g transform="translate(21.845938 225.206172) scale(0.09 -0.09)">
       <use xlink:href="#DejaVuSans-33"/>
       <use xlink:href="#DejaVuSans-30" transform="translate(63.623047 0)"/>
      </g>
     </g>
    </g>
    <g id="ytick_3">
     <g id="line2d_28">
      <path d="M 40.298438 191.099375 
L 465.625937 191.099375 
" clip-path="url(#p7953be13de)" style="fill: none; stroke: #e5e7eb; stroke-width: 0.8; stroke-linecap: square"/>
     </g>
     <g id="line2d_29">
      <g>
       <use xlink:href="#me2d9d74482" x="40.298438" y="191.099375" style="stroke: #000000; stroke-width: 0.8"/>
      </g>
     </g>
     <g id="text_15">
      <!-- 40 -->
      <g transform="translate(21.845938 194.518672) scale(0.09 -0.09)">
       <use xlink:href="#DejaVuSans-34"/>
       <use xlink:href="#DejaVuSans-30" transform="translate(63.623047 0)"/>
      </g>
     </g>
    </g>
    <g id="ytick_4">
     <g id="line2d_30">
      <path d="M 40.298438 160.411875 
L 465.625937 160.411875 
" clip-path="url(#p7953be13de)" style="fill: none; stroke: #e5e7eb; stroke-width: 0.8; stroke-linecap: square"/>
     </g>
     <g id="line2d_31">
      <g>
       <use xlink:href="#me2d9d74482" x="40.298438" y="160.411875" style="stroke: #000000; stroke-width: 0.8"/>
      </g>
     </g>
     <g id="text_16">
      <!-- 50 -->
      <g transform="translate(21.845938 163.831172) scale(0.09 -0.09)">
       <use xlink:href="#DejaVuSans-35"/>
       <use xlink:href="#DejaVuSans-30" transform="translate(63.623047 0)"/>
      </g>
     </g>
    </g>
    <g id="ytick_5">
     <g id="line2d_32">
      <path d="M 40.298438 129.724375 
L 465.625937 129.724375 
" clip-path="url(#p7953be13de)" style="fill: none; stroke: #e5e7eb; stroke-width: 0.8; stroke-linecap: square"/>
     </g>
     <g id="line2d_33">
      <g>
       <use xlink:href="#me2d9d74482" x="40.298438" y="129.724375" style="stroke: #000000; stroke-width: 0.8"/>
      </g>
     </g>
     <g id="text_17">
      <!-- 60 -->
      <g transform="translate(21.845938 133.143672) scale(0.09 -0.09)">
       <defs>
        <path id="DejaVuSans-36" d="M 2113 2584 
Q 1688 2584 1439 2293 
Q 1191 2003 1191 1497 
Q 1191 994 1439 701 
Q 1688 409 2113 409 
Q 2538 409 2786 701 
Q 3034 994 3034 1497 
Q 3034 2003 2786 2293 
Q 2538 2584 2113 2584 
z
M 3366 4563 
L 3366 3988 
Q 3128 4100 2886 4159 
Q 2644 4219 2406 4219 
Q 1781 4219 1451 3797 
Q 1122 3375 1075 2522 
Q 1259 2794 1537 2939 
Q 1816 3084 2150 3084 
Q 2853 3084 3261 2657 
Q 3669 2231 3669 1497 
Q 3669 778 3244 343 
Q 2819 -91 2113 -91 
Q 1303 -91 875 529 
Q 447 1150 447 2328 
Q 447 3434 972 4092 
Q 1497 4750 2381 4750 
Q 2619 4750 2861 4703 
Q 3103 4656 3366 4563 
z
" transform="scale(0.015625)"/>
       </defs>
       <use xlink:href="#DejaVuSans-36"/>
       <use xlink:href="#DejaVuSans-30" transform="translate(63.623047 0)"/>
      </g>
     </g>
    </g>
    <g id="ytick_6">
     <g id="line2d_34">
      <path d="M 40.298438 99.036875 
L 465.625937 99.036875 
" clip-path="url(#p7953be13de)" style="fill: none; stroke: #e5e7eb; stroke-width: 0.8; stroke-linecap: square"/>
     </g>
     <g id="line2d_35">
      <g>
       <use xlink:href="#me2d9d74482" x="40.298438" y="99.036875" style="stroke: #000000; stroke-width: 0.8"/>
      </g>
     </g>
     <g id="text_18">
      <!-- 70 -->
      <g transform="translate(21.845938 102.456172) scale(0.09 -0.09)">
       <defs>
        <path id="DejaVuSans-37" d="M 525 4666 
L 3525 4666 
L 3525 4397 
L 1831 0 
L 1172 0 
L 2766 4134 
L 525 4134 
L 525 4666 
z
" transform="scale(0.015625)"/>
       </defs>
       <use xlink:href="#DejaVuSans-37"/>
       <use xlink:href="#DejaVuSans-30" transform="translate(63.623047 0)"/>
      </g>
     </g>
    </g>
    <g id="ytick_7">
     <g id="line2d_36">
      <path d="M 40.298438 68.349375 
L 465.625937 68.349375 
" clip-path="url(#p7953be13de)" style="fill: none; stroke: #e5e7eb; stroke-width: 0.8; stroke-linecap: square"/>
     </g>
     <g id="line2d_37">
      <g>
       <use xlink:href="#me2d9d74482" x="40.298438" y="68.349375" style="stroke: #000000; stroke-width: 0.8"/>
      </g>
     </g>
     <g id="text_19">
      <!-- 80 -->
      <g transform="translate(21.845938 71.768672) scale(0.09 -0.09)">
       <defs>
        <path id="DejaVuSans-38" d="M 2034 2216 
Q 1584 2216 1326 1975 
Q 1069 1734 1069 1313 
Q 1069 891 1326 650 
Q 1584 409 2034 409 
Q 2484 409 2743 651 
Q 3003 894 3003 1313 
Q 3003 1734 2745 1975 
Q 2488 2216 2034 2216 
z
M 1403 2484 
Q 997 2584 770 2862 
Q 544 3141 544 3541 
Q 544 4100 942 4425 
Q 1341 4750 2034 4750 
Q 2731 4750 3128 4425 
Q 3525 4100 3525 3541 
Q 3525 3141 3298 2862 
Q 3072 2584 2669 2484 
Q 3125 2378 3379 2068 
Q 3634 1759 3634 1313 
Q 3634 634 3220 271 
Q 2806 -91 2034 -91 
Q 1263 -91 848 271 
Q 434 634 434 1313 
Q 434 1759 690 2068 
Q 947 2378 1403 2484 
z
M 1172 3481 
Q 1172 3119 1398 2916 
Q 1625 2713 2034 2713 
Q 2441 2713 2670 2916 
Q 2900 3119 2900 3481 
Q 2900 3844 2670 4047 
Q 2441 4250 2034 4250 
Q 1625 4250 1398 4047 
Q 1172 3844 1172 3481 
z
" transform="scale(0.015625)"/>
       </defs>
       <use xlink:href="#DejaVuSans-38"/>
       <use xlink:href="#DejaVuSans-30" transform="translate(63.623047 0)"/>
      </g>
     </g>
    </g>
    <g id="ytick_8">
     <g id="line2d_38">
      <path d="M 40.298438 37.661875 
L 465.625937 37.661875 
" clip-path="url(#p7953be13de)" style="fill: none; stroke: #e5e7eb; stroke-width: 0.8; stroke-linecap: square"/>
     </g>
     <g id="line2d_39">
      <g>
       <use xlink:href="#me2d9d74482" x="40.298438" y="37.661875" style="stroke: #000000; stroke-width: 0.8"/>
      </g>
     </g>
     <g id="text_20">
      <!-- 90 -->
      <g transform="translate(21.845938 41.081172) scale(0.09 -0.09)">
       <defs>
        <path id="DejaVuSans-39" d="M 703 97 
L 703 672 
Q 941 559 1184 500 
Q 1428 441 1663 441 
Q 2288 441 2617 861 
Q 2947 1281 2994 2138 
Q 2813 1869 2534 1725 
Q 2256 1581 1919 1581 
Q 1219 1581 811 2004 
Q 403 2428 403 3163 
Q 403 3881 828 4315 
Q 1253 4750 1959 4750 
Q 2769 4750 3195 4129 
Q 3622 3509 3622 2328 
Q 3622 1225 3098 567 
Q 2575 -91 1691 -91 
Q 1453 -91 1209 -44 
Q 966 3 703 97 
z
M 1959 2075 
Q 2384 2075 2632 2365 
Q 2881 2656 2881 3163 
Q 2881 3666 2632 3958 
Q 2384 4250 1959 4250 
Q 1534 4250 1286 3958 
Q 1038 3666 1038 3163 
Q 1038 2656 1286 2365 
Q 1534 2075 1959 2075 
z
" transform="scale(0.015625)"/>
       </defs>
       <use xlink:href="#DejaVuSans-39"/>
       <use xlink:href="#DejaVuSans-30" transform="translate(63.623047 0)"/>
      </g>
     </g>
    </g>
    <g id="text_21">
     <!-- Accuracy (%) -->
     <g transform="translate(15.558281 181.444609) rotate(-90) scale(0.11 -0.11)">
      <defs>
       <path id="DejaVuSans-41" d="M 2188 4044 
L 1331 1722 
L 3047 1722 
L 2188 4044 
z
M 1831 4666 
L 2547 4666 
L 4325 0 
L 3669 0 
L 3244 1197 
L 1141 1197 
L 716 0 
L 50 0 
L 1831 4666 
z
" transform="scale(0.015625)"/>
       <path id="DejaVuSans-63" d="M 3122 3366 
L 3122 2828 
Q 2878 2963 2633 3030 
Q 2388 3097 2138 3097 
Q 1578 3097 1268 2742 
Q 959 2388 959 1747 
Q 959 1106 1268 751 
Q 1578 397 2138 397 
Q 2388 397 2633 464 
Q 2878 531 3122 666 
L 3122 134 
Q 2881 22 2623 -34 
Q 2366 -91 2075 -91 
Q 1284 -91 818 406 
Q 353 903 353 1747 
Q 353 2603 823 3093 
Q 1294 3584 2113 3584 
Q 2378 3584 2631 3529 
Q 2884 3475 3122 3366 
z
" transform="scale(0.015625)"/>
       <path id="DejaVuSans-75" d="M 544 1381 
L 544 3500 
L 1119 3500 
L 1119 1403 
Q 1119 906 1312 657 
Q 1506 409 1894 409 
Q 2359 409 2629 706 
Q 2900 1003 2900 1516 
L 2900 3500 
L 3475 3500 
L 3475 0 
L 2900 0 
L 2900 538 
Q 2691 219 2414 64 
Q 2138 -91 1772 -91 
Q 1169 -91 856 284 
Q 544 659 544 1381 
z
M 1991 3584 
L 1991 3584 
z
" transform="scale(0.015625)"/>
       <path id="DejaVuSans-72" d="M 2631 2963 
Q 2534 3019 2420 3045 
Q 2306 3072 2169 3072 
Q 1681 3072 1420 2755 
Q 1159 2438 1159 1844 
L 1159 0 
L 581 0 
L 581 3500 
L 1159 3500 
L 1159 2956 
Q 1341 3275 1631 3429 
Q 1922 3584 2338 3584 
Q 2397 3584 2469 3576 
Q 2541 3569 2628 3553 
L 2631 2963 
z
" transform="scale(0.015625)"/>
       <path id="DejaVuSans-61" d="M 2194 1759 
Q 1497 1759 1228 1600 
Q 959 1441 959 1056 
Q 959 750 1161 570 
Q 1363 391 1709 391 
Q 2188 391 2477 730 
Q 2766 1069 2766 1631 
L 2766 1759 
L 2194 1759 
z
M 3341 1997 
L 3341 0 
L 2766 0 
L 2766 531 
Q 2569 213 2275 61 
Q 1981 -91 1556 -91 
Q 1019 -91 701 211 
Q 384 513 384 1019 
Q 384 1609 779 1909 
Q 1175 2209 1959 2209 
L 2766 2209 
L 2766 2266 
Q 2766 2663 2505 2880 
Q 2244 3097 1772 3097 
Q 1472 3097 1187 3025 
Q 903 2953 641 2809 
L 641 3341 
Q 956 3463 1253 3523 
Q 1550 3584 1831 3584 
Q 2591 3584 2966 3190 
Q 3341 2797 3341 1997 
z
" transform="scale(0.015625)"/>
       <path id="DejaVuSans-79" d="M 2059 -325 
Q 1816 -950 1584 -1140 
Q 1353 -1331 966 -1331 
L 506 -1331 
L 506 -850 
L 844 -850 
Q 1081 -850 1212 -737 
Q 1344 -625 1503 -206 
L 1606 56 
L 191 3500 
L 800 3500 
L 1894 763 
L 2988 3500 
L 3597 3500 
L 2059 -325 
z
" transform="scale(0.015625)"/>
       <path id="DejaVuSans-25" d="M 4653 2053 
Q 4381 2053 4226 1822 
Q 4072 1591 4072 1178 
Q 4072 772 4226 539 
Q 4381 306 4653 306 
Q 4919 306 5073 539 
Q 5228 772 5228 1178 
Q 5228 1588 5073 1820 
Q 4919 2053 4653 2053 
z
M 4653 2450 
Q 5147 2450 5437 2106 
Q 5728 1763 5728 1178 
Q 5728 594 5436 251 
Q 5144 -91 4653 -91 
Q 4153 -91 3862 251 
Q 3572 594 3572 1178 
Q 3572 1766 3864 2108 
Q 4156 2450 4653 2450 
z
M 1428 4353 
Q 1159 4353 1004 4120 
Q 850 3888 850 3481 
Q 850 3069 1003 2837 
Q 1156 2606 1428 2606 
Q 1700 2606 1854 2837 
Q 2009 3069 2009 3481 
Q 2009 3884 1853 4118 
Q 1697 4353 1428 4353 
z
M 4250 4750 
L 4750 4750 
L 1831 -91 
L 1331 -91 
L 4250 4750 
z
M 1428 4750 
Q 1922 4750 2215 4408 
Q 2509 4066 2509 3481 
Q 2509 2891 2217 2550 
Q 1925 2209 1428 2209 
Q 931 2209 642 2551 
Q 353 2894 353 3481 
Q 353 4063 643 4406 
Q 934 4750 1428 4750 
z
" transform="scale(0.015625)"/>
      </defs>
      <use xlink:href="#DejaVuSans-41"/>
      <use xlink:href="#DejaVuSans-63" transform="translate(66.658203 0)"/>
      <use xlink:href="#DejaVuSans-63" transform="translate(121.638672 0)"/>
      <use xlink:href="#DejaVuSans-75" transform="translate(176.619141 0)"/>
      <use xlink:href="#DejaVuSans-72" transform="translate(239.998047 0)"/>
      <use xlink:href="#DejaVuSans-61" transform="translate(281.111328 0)"/>
      <use xlink:href="#DejaVuSans-63" transform="translate(342.390625 0)"/>
      <use xlink:href="#DejaVuSans-79" transform="translate(397.371094 0)"/>
      <use xlink:href="#DejaVuSans-20" transform="translate(456.550781 0)"/>
      <use xlink:href="#DejaVuSans-28" transform="translate(488.337891 0)"/>
      <use xlink:href="#DejaVuSans-25" transform="translate(527.351562 0)"/>
      <use xlink:href="#DejaVuSans-29" transform="translate(622.371094 0)"/>
     </g>
    </g>
   </g>
   <g id="line2d_40">
    <path d="M 47.049668 253.947375 
L 114.561969 250.633125 
L 182.074271 247.318875 
L 195.576731 244.372875 
L 209.079191 242.899875 
L 222.581652 236.639625 
L 236.084112 226.205875 
L 249.586572 221.541375 
L 317.098874 188.276125 
L 384.611176 180.665625 
L 452.123477 178.087875 
" clip-path="url(#p7953be13de)" style="fill: none; stroke-dasharray: 6.29,2.72; stroke-dashoffset: 0; stroke: #6b7280; stroke-width: 1.7"/>
    <defs>
     <path id="m348a40589f" d="M 0 2.25 
C 0.596707 2.25 1.169055 2.012926 1.59099 1.59099 
C 2.012926 1.169055 2.25 0.596707 2.25 0 
C 2.25 -0.596707 2.012926 -1.169055 1.59099 -1.59099 
C 1.169055 -2.012926 0.596707 -2.25 0 -2.25 
C -0.596707 -2.25 -1.169055 -2.012926 -1.59099 -1.59099 
C -2.012926 -1.169055 -2.25 -0.596707 -2.25 0 
C -2.25 0.596707 -2.012926 1.169055 -1.59099 1.59099 
C -1.169055 2.012926 -0.596707 2.25 0 2.25 
z
" style="stroke: #6b7280"/>
    </defs>
    <g clip-path="url(#p7953be13de)">
     <use xlink:href="#m348a40589f" x="47.049668" y="253.947375" style="fill: #6b7280; stroke: #6b7280"/>
     <use xlink:href="#m348a40589f" x="114.561969" y="250.633125" style="fill: #6b7280; stroke: #6b7280"/>
     <use xlink:href="#m348a40589f" x="182.074271" y="247.318875" style="fill: #6b7280; stroke: #6b7280"/>
     <use xlink:href="#m348a40589f" x="195.576731" y="244.372875" style="fill: #6b7280; stroke: #6b7280"/>
     <use xlink:href="#m348a40589f" x="209.079191" y="242.899875" style="fill: #6b7280; stroke: #6b7280"/>
     <use xlink:href="#m348a40589f" x="222.581652" y="236.639625" style="fill: #6b7280; stroke: #6b7280"/>
     <use xlink:href="#m348a40589f" x="236.084112" y="226.205875" style="fill: #6b7280; stroke: #6b7280"/>
     <use xlink:href="#m348a40589f" x="249.586572" y="221.541375" style="fill: #6b7280; stroke: #6b7280"/>
     <use xlink:href="#m348a40589f" x="317.098874" y="188.276125" style="fill: #6b7280; stroke: #6b7280"/>
     <use xlink:href="#m348a40589f" x="384.611176" y="180.665625" style="fill: #6b7280; stroke: #6b7280"/>
     <use xlink:href="#m348a40589f" x="452.123477" y="178.087875" style="fill: #6b7280; stroke: #6b7280"/>
    </g>
   </g>
   <g id="line2d_41">
    <path d="M 47.049668 250.633125 
L 114.561969 255.665875 
L 182.074271 239.462875 
L 195.576731 225.101125 
L 209.079191 201.410375 
L 222.581652 182.629625 
L 236.084112 161.148375 
L 249.586572 141.262875 
L 317.098874 95.599875 
L 384.611176 73.382125 
L 452.123477 59.265875 
" clip-path="url(#p7953be13de)" style="fill: none; stroke: #2563eb; stroke-width: 2; stroke-linecap: square"/>
    <defs>
     <path id="mbda26667e0" d="M -2.25 2.25 
L 2.25 2.25 
L 2.25 -2.25 
L -2.25 -2.25 
z
" style="stroke: #2563eb; stroke-linejoin: miter"/>
    </defs>
    <g clip-path="url(#p7953be13de)">
     <use xlink:href="#mbda26667e0" x="47.049668" y="250.633125" style="fill: #2563eb; stroke: #2563eb; stroke-linejoin: miter"/>
     <use xlink:href="#mbda26667e0" x="114.561969" y="255.665875" style="fill: #2563eb; stroke: #2563eb; stroke-linejoin: miter"/>
     <use xlink:href="#mbda26667e0" x="182.074271" y="239.462875" style="fill: #2563eb; stroke: #2563eb; stroke-linejoin: miter"/>
     <use xlink:href="#mbda26667e0" x="195.576731" y="225.101125" style="fill: #2563eb; stroke: #2563eb; stroke-linejoin: miter"/>
     <use xlink:href="#mbda26667e0" x="209.079191" y="201.410375" style="fill: #2563eb; stroke: #2563eb; stroke-linejoin: miter"/>
     <use xlink:href="#mbda26667e0" x="222.581652" y="182.629625" style="fill: #2563eb; stroke: #2563eb; stroke-linejoin: miter"/>
     <use xlink:href="#mbda26667e0" x="236.084112" y="161.148375" style="fill: #2563eb; stroke: #2563eb; stroke-linejoin: miter"/>
     <use xlink:href="#mbda26667e0" x="249.586572" y="141.262875" style="fill: #2563eb; stroke: #2563eb; stroke-linejoin: miter"/>
     <use xlink:href="#mbda26667e0" x="317.098874" y="95.599875" style="fill: #2563eb; stroke: #2563eb; stroke-linejoin: miter"/>
     <use xlink:href="#mbda26667e0" x="384.611176" y="73.382125" style="fill: #2563eb; stroke: #2563eb; stroke-linejoin: miter"/>
     <use xlink:href="#mbda26667e0" x="452.123477" y="59.265875" style="fill: #2563eb; stroke: #2563eb; stroke-linejoin: miter"/>
    </g>
   </g>
   <g id="line2d_42">
    <path d="M 47.049668 249.773875 
L 114.561969 250.019375 
L 182.074271 240.813125 
L 195.576731 224.119125 
L 209.079191 205.461125 
L 222.581652 186.434875 
L 236.084112 161.025625 
L 249.586572 144.331625 
L 317.098874 101.737375 
L 384.611176 67.244625 
L 452.123477 74.364125 
" clip-path="url(#p7953be13de)" style="fill: none; stroke: #7c3aed; stroke-width: 2; stroke-linecap: square"/>
    <defs>
     <path id="ma89abc3147" d="M -0 2.25 
L 2.25 -2.25 
L -2.25 -2.25 
z
" style="stroke: #7c3aed; stroke-linejoin: miter"/>
    </defs>
    <g clip-path="url(#p7953be13de)">
     <use xlink:href="#ma89abc3147" x="47.049668" y="249.773875" style="fill: #7c3aed; stroke: #7c3aed; stroke-linejoin: miter"/>
     <use xlink:href="#ma89abc3147" x="114.561969" y="250.019375" style="fill: #7c3aed; stroke: #7c3aed; stroke-linejoin: miter"/>
     <use xlink:href="#ma89abc3147" x="182.074271" y="240.813125" style="fill: #7c3aed; stroke: #7c3aed; stroke-linejoin: miter"/>
     <use xlink:href="#ma89abc3147" x="195.576731" y="224.119125" style="fill: #7c3aed; stroke: #7c3aed; stroke-linejoin: miter"/>
     <use xlink:href="#ma89abc3147" x="209.079191" y="205.461125" style="fill: #7c3aed; stroke: #7c3aed; stroke-linejoin: miter"/>
     <use xlink:href="#ma89abc3147" x="222.581652" y="186.434875" style="fill: #7c3aed; stroke: #7c3aed; stroke-linejoin: miter"/>
     <use xlink:href="#ma89abc3147" x="236.084112" y="161.025625" style="fill: #7c3aed; stroke: #7c3aed; stroke-linejoin: miter"/>
     <use xlink:href="#ma89abc3147" x="249.586572" y="144.331625" style="fill: #7c3aed; stroke: #7c3aed; stroke-linejoin: miter"/>
     <use xlink:href="#ma89abc3147" x="317.098874" y="101.737375" style="fill: #7c3aed; stroke: #7c3aed; stroke-linejoin: miter"/>
     <use xlink:href="#ma89abc3147" x="384.611176" y="67.244625" style="fill: #7c3aed; stroke: #7c3aed; stroke-linejoin: miter"/>
     <use xlink:href="#ma89abc3147" x="452.123477" y="74.364125" style="fill: #7c3aed; stroke: #7c3aed; stroke-linejoin: miter"/>
    </g>
   </g>
   <g id="line2d_43">
    <path d="M 47.049668 257.261625 
L 114.561969 246.827875 
L 182.074271 226.942375 
L 195.576731 200.919375 
L 209.079191 177.719625 
L 222.581652 170.722875 
L 236.084112 152.310375 
L 249.586572 143.963375 
L 317.098874 93.144875 
L 384.611176 58.406625 
L 452.123477 42.326375 
" clip-path="url(#p7953be13de)" style="fill: none; stroke: #dc2626; stroke-width: 2.15; stroke-linecap: square"/>
    <defs>
     <path id="m40f1500009" d="M 0 3.040559 
L 3.040559 0 
L 0 -3.040559 
L -3.040559 0 
z
" style="stroke: #dc2626; stroke-linejoin: miter"/>
    </defs>
    <g clip-path="url(#p7953be13de)">
     <use xlink:href="#m40f1500009" x="47.049668" y="257.261625" style="fill: #dc2626; stroke: #dc2626; stroke-linejoin: miter"/>
     <use xlink:href="#m40f1500009" x="114.561969" y="246.827875" style="fill: #dc2626; stroke: #dc2626; stroke-linejoin: miter"/>
     <use xlink:href="#m40f1500009" x="182.074271" y="226.942375" style="fill: #dc2626; stroke: #dc2626; stroke-linejoin: miter"/>
     <use xlink:href="#m40f1500009" x="195.576731" y="200.919375" style="fill: #dc2626; stroke: #dc2626; stroke-linejoin: miter"/>
     <use xlink:href="#m40f1500009" x="209.079191" y="177.719625" style="fill: #dc2626; stroke: #dc2626; stroke-linejoin: miter"/>
     <use xlink:href="#m40f1500009" x="222.581652" y="170.722875" style="fill: #dc2626; stroke: #dc2626; stroke-linejoin: miter"/>
     <use xlink:href="#m40f1500009" x="236.084112" y="152.310375" style="fill: #dc2626; stroke: #dc2626; stroke-linejoin: miter"/>
     <use xlink:href="#m40f1500009" x="249.586572" y="143.963375" style="fill: #dc2626; stroke: #dc2626; stroke-linejoin: miter"/>
     <use xlink:href="#m40f1500009" x="317.098874" y="93.144875" style="fill: #dc2626; stroke: #dc2626; stroke-linejoin: miter"/>
     <use xlink:href="#m40f1500009" x="384.611176" y="58.406625" style="fill: #dc2626; stroke: #dc2626; stroke-linejoin: miter"/>
     <use xlink:href="#m40f1500009" x="452.123477" y="42.326375" style="fill: #dc2626; stroke: #dc2626; stroke-linejoin: miter"/>
    </g>
   </g>
   <g id="line2d_44">
    <path d="M 47.049668 255.174875 
L 114.561969 255.788625 
L 182.074271 253.579125 
L 195.576731 252.106125 
L 209.079191 252.842625 
L 222.581652 251.246875 
L 236.084112 253.947375 
L 249.586572 252.228875 
L 317.098874 252.597125 
L 384.611176 247.318875 
L 452.123477 248.300875 
" clip-path="url(#p7953be13de)" style="fill: none; stroke-dasharray: 11.52,2.88,1.8,2.88; stroke-dashoffset: 0; stroke: #0f766e; stroke-width: 1.8"/>
    <defs>
     <path id="me766be0d9c" d="M -1.2 2.4 
L 0 1.2 
L 1.2 2.4 
L 2.4 1.2 
L 1.2 0 
L 2.4 -1.2 
L 1.2 -2.4 
L 0 -1.2 
L -1.2 -2.4 
L -2.4 -1.2 
L -1.2 0 
L -2.4 1.2 
z
" style="stroke: #0f766e; stroke-linejoin: miter"/>
    </defs>
    <g clip-path="url(#p7953be13de)">
     <use xlink:href="#me766be0d9c" x="47.049668" y="255.174875" style="fill: #0f766e; stroke: #0f766e; stroke-linejoin: miter"/>
     <use xlink:href="#me766be0d9c" x="114.561969" y="255.788625" style="fill: #0f766e; stroke: #0f766e; stroke-linejoin: miter"/>
     <use xlink:href="#me766be0d9c" x="182.074271" y="253.579125" style="fill: #0f766e; stroke: #0f766e; stroke-linejoin: miter"/>
     <use xlink:href="#me766be0d9c" x="195.576731" y="252.106125" style="fill: #0f766e; stroke: #0f766e; stroke-linejoin: miter"/>
     <use xlink:href="#me766be0d9c" x="209.079191" y="252.842625" style="fill: #0f766e; stroke: #0f766e; stroke-linejoin: miter"/>
     <use xlink:href="#me766be0d9c" x="222.581652" y="251.246875" style="fill: #0f766e; stroke: #0f766e; stroke-linejoin: miter"/>
     <use xlink:href="#me766be0d9c" x="236.084112" y="253.947375" style="fill: #0f766e; stroke: #0f766e; stroke-linejoin: miter"/>
     <use xlink:href="#me766be0d9c" x="249.586572" y="252.228875" style="fill: #0f766e; stroke: #0f766e; stroke-linejoin: miter"/>
     <use xlink:href="#me766be0d9c" x="317.098874" y="252.597125" style="fill: #0f766e; stroke: #0f766e; stroke-linejoin: miter"/>
     <use xlink:href="#me766be0d9c" x="384.611176" y="247.318875" style="fill: #0f766e; stroke: #0f766e; stroke-linejoin: miter"/>
     <use xlink:href="#me766be0d9c" x="452.123477" y="248.300875" style="fill: #0f766e; stroke: #0f766e; stroke-linejoin: miter"/>
    </g>
   </g>
   <g id="patch_4">
    <path d="M 40.298438 267.818125 
L 40.298438 22.318125 
" style="fill: none; stroke: #000000; stroke-width: 0.8; stroke-linejoin: miter; stroke-linecap: square"/>
   </g>
   <g id="patch_5">
    <path d="M 40.298438 267.818125 
L 465.625937 267.818125 
" style="fill: none; stroke: #000000; stroke-width: 0.8; stroke-linejoin: miter; stroke-linecap: square"/>
   </g>
   <g id="text_22">
    <!-- Chance (20%) -->
    <g style="fill: #6b7280" transform="translate(455.499092 254.764656) scale(0.083 -0.083)">
     <defs>
      <path id="DejaVuSans-43" d="M 4122 4306 
L 4122 3641 
Q 3803 3938 3442 4084 
Q 3081 4231 2675 4231 
Q 1875 4231 1450 3742 
Q 1025 3253 1025 2328 
Q 1025 1406 1450 917 
Q 1875 428 2675 428 
Q 3081 428 3442 575 
Q 3803 722 4122 1019 
L 4122 359 
Q 3791 134 3420 21 
Q 3050 -91 2638 -91 
Q 1578 -91 968 557 
Q 359 1206 359 2328 
Q 359 3453 968 4101 
Q 1578 4750 2638 4750 
Q 3056 4750 3426 4639 
Q 3797 4528 4122 4306 
z
" transform="scale(0.015625)"/>
      <path id="DejaVuSans-68" d="M 3513 2113 
L 3513 0 
L 2938 0 
L 2938 2094 
Q 2938 2591 2744 2837 
Q 2550 3084 2163 3084 
Q 1697 3084 1428 2787 
Q 1159 2491 1159 1978 
L 1159 0 
L 581 0 
L 581 4863 
L 1159 4863 
L 1159 2956 
Q 1366 3272 1645 3428 
Q 1925 3584 2291 3584 
Q 2894 3584 3203 3211 
Q 3513 2838 3513 2113 
z
" transform="scale(0.015625)"/>
      <path id="DejaVuSans-6e" d="M 3513 2113 
L 3513 0 
L 2938 0 
L 2938 2094 
Q 2938 2591 2744 2837 
Q 2550 3084 2163 3084 
Q 1697 3084 1428 2787 
Q 1159 2491 1159 1978 
L 1159 0 
L 581 0 
L 581 3500 
L 1159 3500 
L 1159 2956 
Q 1366 3272 1645 3428 
Q 1925 3584 2291 3584 
Q 2894 3584 3203 3211 
Q 3513 2838 3513 2113 
z
" transform="scale(0.015625)"/>
     </defs>
     <use xlink:href="#DejaVuSans-43"/>
     <use xlink:href="#DejaVuSans-68" transform="translate(69.824219 0)"/>
     <use xlink:href="#DejaVuSans-61" transform="translate(133.203125 0)"/>
     <use xlink:href="#DejaVuSans-6e" transform="translate(194.482422 0)"/>
     <use xlink:href="#DejaVuSans-63" transform="translate(257.861328 0)"/>
     <use xlink:href="#DejaVuSans-65" transform="translate(312.841797 0)"/>
     <use xlink:href="#DejaVuSans-20" transform="translate(374.365234 0)"/>
     <use xlink:href="#DejaVuSans-28" transform="translate(406.152344 0)"/>
     <use xlink:href="#DejaVuSans-32" transform="translate(445.166016 0)"/>
     <use xlink:href="#DejaVuSans-30" transform="translate(508.789062 0)"/>
     <use xlink:href="#DejaVuSans-25" transform="translate(572.412109 0)"/>
     <use xlink:href="#DejaVuSans-29" transform="translate(667.431641 0)"/>
    </g>
   </g>
   <g id="text_23">
    <!-- transition SNR -->
    <g style="fill: #92400e" transform="translate(186.118367 35.349031) scale(0.083 -0.083)">
     <defs>
      <path id="DejaVuSans-69" d="M 603 3500 
L 1178 3500 
L 1178 0 
L 603 0 
L 603 3500 
z
M 603 4863 
L 1178 4863 
L 1178 4134 
L 603 4134 
L 603 4863 
z
" transform="scale(0.015625)"/>
      <path id="DejaVuSans-6f" d="M 1959 3097 
Q 1497 3097 1228 2736 
Q 959 2375 959 1747 
Q 959 1119 1226 758 
Q 1494 397 1959 397 
Q 2419 397 2687 759 
Q 2956 1122 2956 1747 
Q 2956 2369 2687 2733 
Q 2419 3097 1959 3097 
z
M 1959 3584 
Q 2709 3584 3137 3096 
Q 3566 2609 3566 1747 
Q 3566 888 3137 398 
Q 2709 -91 1959 -91 
Q 1206 -91 779 398 
Q 353 888 353 1747 
Q 353 2609 779 3096 
Q 1206 3584 1959 3584 
z
" transform="scale(0.015625)"/>
     </defs>
     <use xlink:href="#DejaVuSans-74"/>
     <use xlink:href="#DejaVuSans-72" transform="translate(39.208984 0)"/>
     <use xlink:href="#DejaVuSans-61" transform="translate(80.322266 0)"/>
     <use xlink:href="#DejaVuSans-6e" transform="translate(141.601562 0)"/>
     <use xlink:href="#DejaVuSans-73" transform="translate(204.980469 0)"/>
     <use xlink:href="#DejaVuSans-69" transform="translate(257.080078 0)"/>
     <use xlink:href="#DejaVuSans-74" transform="translate(284.863281 0)"/>
     <use xlink:href="#DejaVuSans-69" transform="translate(324.072266 0)"/>
     <use xlink:href="#DejaVuSans-6f" transform="translate(351.855469 0)"/>
     <use xlink:href="#DejaVuSans-6e" transform="translate(413.037109 0)"/>
     <use xlink:href="#DejaVuSans-20" transform="translate(476.416016 0)"/>
     <use xlink:href="#DejaVuSans-53" transform="translate(508.203125 0)"/>
     <use xlink:href="#DejaVuSans-4e" transform="translate(571.679688 0)"/>
     <use xlink:href="#DejaVuSans-52" transform="translate(646.484375 0)"/>
    </g>
   </g>
   <g id="text_24">
    <!-- Dense SNR evaluation, label ratio 0.005 -->
    <g transform="translate(133.040937 16.318125) scale(0.12 -0.12)">
     <defs>
      <path id="DejaVuSans-44" d="M 1259 4147 
L 1259 519 
L 2022 519 
Q 2988 519 3436 956 
Q 3884 1394 3884 2338 
Q 3884 3275 3436 3711 
Q 2988 4147 2022 4147 
L 1259 4147 
z
M 628 4666 
L 1925 4666 
Q 3281 4666 3915 4102 
Q 4550 3538 4550 2338 
Q 4550 1131 3912 565 
Q 3275 0 1925 0 
L 628 0 
L 628 4666 
z
" transform="scale(0.015625)"/>
      <path id="DejaVuSans-76" d="M 191 3500 
L 800 3500 
L 1894 563 
L 2988 3500 
L 3597 3500 
L 2284 0 
L 1503 0 
L 191 3500 
z
" transform="scale(0.015625)"/>
      <path id="DejaVuSans-6c" d="M 603 4863 
L 1178 4863 
L 1178 0 
L 603 0 
L 603 4863 
z
" transform="scale(0.015625)"/>
      <path id="DejaVuSans-2c" d="M 750 794 
L 1409 794 
L 1409 256 
L 897 -744 
L 494 -744 
L 750 256 
L 750 794 
z
" transform="scale(0.015625)"/>
      <path id="DejaVuSans-62" d="M 3116 1747 
Q 3116 2381 2855 2742 
Q 2594 3103 2138 3103 
Q 1681 3103 1420 2742 
Q 1159 2381 1159 1747 
Q 1159 1113 1420 752 
Q 1681 391 2138 391 
Q 2594 391 2855 752 
Q 3116 1113 3116 1747 
z
M 1159 2969 
Q 1341 3281 1617 3432 
Q 1894 3584 2278 3584 
Q 2916 3584 3314 3078 
Q 3713 2572 3713 1747 
Q 3713 922 3314 415 
Q 2916 -91 2278 -91 
Q 1894 -91 1617 61 
Q 1341 213 1159 525 
L 1159 0 
L 581 0 
L 581 4863 
L 1159 4863 
L 1159 2969 
z
" transform="scale(0.015625)"/>
      <path id="DejaVuSans-2e" d="M 684 794 
L 1344 794 
L 1344 0 
L 684 0 
L 684 794 
z
" transform="scale(0.015625)"/>
     </defs>
     <use xlink:href="#DejaVuSans-44"/>
     <use xlink:href="#DejaVuSans-65" transform="translate(77.001953 0)"/>
     <use xlink:href="#DejaVuSans-6e" transform="translate(138.525391 0)"/>
     <use xlink:href="#DejaVuSans-73" transform="translate(201.904297 0)"/>
     <use xlink:href="#DejaVuSans-65" transform="translate(254.003906 0)"/>
     <use xlink:href="#DejaVuSans-20" transform="translate(315.527344 0)"/>
     <use xlink:href="#DejaVuSans-53" transform="translate(347.314453 0)"/>
     <use xlink:href="#DejaVuSans-4e" transform="translate(410.791016 0)"/>
     <use xlink:href="#DejaVuSans-52" transform="translate(485.595703 0)"/>
     <use xlink:href="#DejaVuSans-20" transform="translate(555.078125 0)"/>
     <use xlink:href="#DejaVuSans-65" transform="translate(586.865234 0)"/>
     <use xlink:href="#DejaVuSans-76" transform="translate(648.388672 0)"/>
     <use xlink:href="#DejaVuSans-61" transform="translate(707.568359 0)"/>
     <use xlink:href="#DejaVuSans-6c" transform="translate(768.847656 0)"/>
     <use xlink:href="#DejaVuSans-75" transform="translate(796.630859 0)"/>
     <use xlink:href="#DejaVuSans-61" transform="translate(860.009766 0)"/>
     <use xlink:href="#DejaVuSans-74" transform="translate(921.289062 0)"/>
     <use xlink:href="#DejaVuSans-69" transform="translate(960.498047 0)"/>
     <use xlink:href="#DejaVuSans-6f" transform="translate(988.28125 0)"/>
     <use xlink:href="#DejaVuSans-6e" transform="translate(1049.462891 0)"/>
     <use xlink:href="#DejaVuSans-2c" transform="translate(1112.841797 0)"/>
     <use xlink:href="#DejaVuSans-20" transform="translate(1144.628906 0)"/>
     <use xlink:href="#DejaVuSans-6c" transform="translate(1176.416016 0)"/>
     <use xlink:href="#DejaVuSans-61" transform="translate(1204.199219 0)"/>
     <use xlink:href="#DejaVuSans-62" transform="translate(1265.478516 0)"/>
     <use xlink:href="#DejaVuSans-65" transform="translate(1328.955078 0)"/>
     <use xlink:href="#DejaVuSans-6c" transform="translate(1390.478516 0)"/>
     <use xlink:href="#DejaVuSans-20" transform="translate(1418.261719 0)"/>
     <use xlink:href="#DejaVuSans-72" transform="translate(1450.048828 0)"/>
     <use xlink:href="#DejaVuSans-61" transform="translate(1491.162109 0)"/>
     <use xlink:href="#DejaVuSans-74" transform="translate(1552.441406 0)"/>
     <use xlink:href="#DejaVuSans-69" transform="translate(1591.650391 0)"/>
     <use xlink:href="#DejaVuSans-6f" transform="translate(1619.433594 0)"/>
     <use xlink:href="#DejaVuSans-20" transform="translate(1680.615234 0)"/>
     <use xlink:href="#DejaVuSans-30" transform="translate(1712.402344 0)"/>
     <use xlink:href="#DejaVuSans-2e" transform="translate(1776.025391 0)"/>
     <use xlink:href="#DejaVuSans-30" transform="translate(1807.8125 0)"/>
     <use xlink:href="#DejaVuSans-30" transform="translate(1871.435547 0)"/>
     <use xlink:href="#DejaVuSans-35" transform="translate(1935.058594 0)"/>
    </g>
   </g>
   <g id="legend_1">
    <g id="patch_6">
     <path d="M 46.388438 93.127969 
L 136.179234 93.127969 
Q 137.919234 93.127969 137.919234 91.387969 
L 137.919234 28.408125 
Q 137.919234 26.668125 136.179234 26.668125 
L 46.388438 26.668125 
Q 44.648438 26.668125 44.648438 28.408125 
L 44.648438 91.387969 
Q 44.648438 93.127969 46.388438 93.127969 
z
" style="fill: #ffffff; opacity: 0.96; stroke: #e5e7eb; stroke-linejoin: miter"/>
    </g>
    <g id="line2d_45">
     <path d="M 48.128438 33.713766 
L 56.828438 33.713766 
L 65.528437 33.713766 
" style="fill: none; stroke-dasharray: 6.29,2.72; stroke-dashoffset: 0; stroke: #6b7280; stroke-width: 1.7"/>
     <g>
      <use xlink:href="#m348a40589f" x="56.828438" y="33.713766" style="fill: #6b7280; stroke: #6b7280"/>
     </g>
    </g>
    <g id="text_25">
     <!-- SL baseline -->
     <g transform="translate(72.488438 36.758766) scale(0.087 -0.087)">
      <defs>
       <path id="DejaVuSans-4c" d="M 628 4666 
L 1259 4666 
L 1259 531 
L 3531 531 
L 3531 0 
L 628 0 
L 628 4666 
z
" transform="scale(0.015625)"/>
      </defs>
      <use xlink:href="#DejaVuSans-53"/>
      <use xlink:href="#DejaVuSans-4c" transform="translate(63.476562 0)"/>
      <use xlink:href="#DejaVuSans-20" transform="translate(119.189453 0)"/>
      <use xlink:href="#DejaVuSans-62" transform="translate(150.976562 0)"/>
      <use xlink:href="#DejaVuSans-61" transform="translate(214.453125 0)"/>
      <use xlink:href="#DejaVuSans-73" transform="translate(275.732422 0)"/>
      <use xlink:href="#DejaVuSans-65" transform="translate(327.832031 0)"/>
      <use xlink:href="#DejaVuSans-6c" transform="translate(389.355469 0)"/>
      <use xlink:href="#DejaVuSans-69" transform="translate(417.138672 0)"/>
      <use xlink:href="#DejaVuSans-6e" transform="translate(444.921875 0)"/>
      <use xlink:href="#DejaVuSans-65" transform="translate(508.300781 0)"/>
     </g>
    </g>
    <g id="line2d_46">
     <path d="M 48.128438 46.483734 
L 56.828438 46.483734 
L 65.528437 46.483734 
" style="fill: none; stroke: #2563eb; stroke-width: 2; stroke-linecap: square"/>
     <g>
      <use xlink:href="#mbda26667e0" x="56.828438" y="46.483734" style="fill: #2563eb; stroke: #2563eb; stroke-linejoin: miter"/>
     </g>
    </g>
    <g id="text_26">
     <!-- SSL baseline -->
     <g transform="translate(72.488438 49.528734) scale(0.087 -0.087)">
      <use xlink:href="#DejaVuSans-53"/>
      <use xlink:href="#DejaVuSans-53" transform="translate(63.476562 0)"/>
      <use xlink:href="#DejaVuSans-4c" transform="translate(126.953125 0)"/>
      <use xlink:href="#DejaVuSans-20" transform="translate(182.666016 0)"/>
      <use xlink:href="#DejaVuSans-62" transform="translate(214.453125 0)"/>
      <use xlink:href="#DejaVuSans-61" transform="translate(277.929688 0)"/>
      <use xlink:href="#DejaVuSans-73" transform="translate(339.208984 0)"/>
      <use xlink:href="#DejaVuSans-65" transform="translate(391.308594 0)"/>
      <use xlink:href="#DejaVuSans-6c" transform="translate(452.832031 0)"/>
      <use xlink:href="#DejaVuSans-69" transform="translate(480.615234 0)"/>
      <use xlink:href="#DejaVuSans-6e" transform="translate(508.398438 0)"/>
      <use xlink:href="#DejaVuSans-65" transform="translate(571.777344 0)"/>
     </g>
    </g>
    <g id="line2d_47">
     <path d="M 48.128438 59.253703 
L 56.828438 59.253703 
L 65.528437 59.253703 
" style="fill: none; stroke: #7c3aed; stroke-width: 2; stroke-linecap: square"/>
     <g>
      <use xlink:href="#ma89abc3147" x="56.828438" y="59.253703" style="fill: #7c3aed; stroke: #7c3aed; stroke-linejoin: miter"/>
     </g>
    </g>
    <g id="text_27">
     <!-- Low-both SSL -->
     <g transform="translate(72.488438 62.298703) scale(0.087 -0.087)">
      <defs>
       <path id="DejaVuSans-77" d="M 269 3500 
L 844 3500 
L 1563 769 
L 2278 3500 
L 2956 3500 
L 3675 769 
L 4391 3500 
L 4966 3500 
L 4050 0 
L 3372 0 
L 2619 2869 
L 1863 0 
L 1184 0 
L 269 3500 
z
" transform="scale(0.015625)"/>
       <path id="DejaVuSans-2d" d="M 313 2009 
L 1997 2009 
L 1997 1497 
L 313 1497 
L 313 2009 
z
" transform="scale(0.015625)"/>
      </defs>
      <use xlink:href="#DejaVuSans-4c"/>
      <use xlink:href="#DejaVuSans-6f" transform="translate(53.962891 0)"/>
      <use xlink:href="#DejaVuSans-77" transform="translate(115.144531 0)"/>
      <use xlink:href="#DejaVuSans-2d" transform="translate(196.931641 0)"/>
      <use xlink:href="#DejaVuSans-62" transform="translate(233.015625 0)"/>
      <use xlink:href="#DejaVuSans-6f" transform="translate(296.492188 0)"/>
      <use xlink:href="#DejaVuSans-74" transform="translate(357.673828 0)"/>
      <use xlink:href="#DejaVuSans-68" transform="translate(396.882812 0)"/>
      <use xlink:href="#DejaVuSans-20" transform="translate(460.261719 0)"/>
      <use xlink:href="#DejaVuSans-53" transform="translate(492.048828 0)"/>
      <use xlink:href="#DejaVuSans-53" transform="translate(555.525391 0)"/>
      <use xlink:href="#DejaVuSans-4c" transform="translate(619.001953 0)"/>
     </g>
    </g>
    <g id="line2d_48">
     <path d="M 48.128438 72.023672 
L 56.828438 72.023672 
L 65.528437 72.023672 
" style="fill: none; stroke: #dc2626; stroke-width: 2.15; stroke-linecap: square"/>
     <g>
      <use xlink:href="#m40f1500009" x="56.828438" y="72.023672" style="fill: #dc2626; stroke: #dc2626; stroke-linejoin: miter"/>
     </g>
    </g>
    <g id="text_28">
     <!-- Per-head SSL -->
     <g transform="translate(72.488438 75.068672) scale(0.087 -0.087)">
      <defs>
       <path id="DejaVuSans-50" d="M 1259 4147 
L 1259 2394 
L 2053 2394 
Q 2494 2394 2734 2622 
Q 2975 2850 2975 3272 
Q 2975 3691 2734 3919 
Q 2494 4147 2053 4147 
L 1259 4147 
z
M 628 4666 
L 2053 4666 
Q 2838 4666 3239 4311 
Q 3641 3956 3641 3272 
Q 3641 2581 3239 2228 
Q 2838 1875 2053 1875 
L 1259 1875 
L 1259 0 
L 628 0 
L 628 4666 
z
" transform="scale(0.015625)"/>
      </defs>
      <use xlink:href="#DejaVuSans-50"/>
      <use xlink:href="#DejaVuSans-65" transform="translate(56.677734 0)"/>
      <use xlink:href="#DejaVuSans-72" transform="translate(118.201172 0)"/>
      <use xlink:href="#DejaVuSans-2d" transform="translate(152.939453 0)"/>
      <use xlink:href="#DejaVuSans-68" transform="translate(189.023438 0)"/>
      <use xlink:href="#DejaVuSans-65" transform="translate(252.402344 0)"/>
      <use xlink:href="#DejaVuSans-61" transform="translate(313.925781 0)"/>
      <use xlink:href="#DejaVuSans-64" transform="translate(375.205078 0)"/>
      <use xlink:href="#DejaVuSans-20" transform="translate(438.681641 0)"/>
      <use xlink:href="#DejaVuSans-53" transform="translate(470.46875 0)"/>
      <use xlink:href="#DejaVuSans-53" transform="translate(533.945312 0)"/>
      <use xlink:href="#DejaVuSans-4c" transform="translate(597.421875 0)"/>
     </g>
    </g>
    <g id="line2d_49">
     <path d="M 48.128438 84.793641 
L 56.828438 84.793641 
L 65.528437 84.793641 
" style="fill: none; stroke-dasharray: 11.52,2.88,1.8,2.88; stroke-dashoffset: 0; stroke: #0f766e; stroke-width: 1.8"/>
     <g>
      <use xlink:href="#me766be0d9c" x="56.828438" y="84.793641" style="fill: #0f766e; stroke: #0f766e; stroke-linejoin: miter"/>
     </g>
    </g>
    <g id="text_29">
     <!-- Denoising SSL -->
     <g transform="translate(72.488438 87.838641) scale(0.087 -0.087)">
      <defs>
       <path id="DejaVuSans-67" d="M 2906 1791 
Q 2906 2416 2648 2759 
Q 2391 3103 1925 3103 
Q 1463 3103 1205 2759 
Q 947 2416 947 1791 
Q 947 1169 1205 825 
Q 1463 481 1925 481 
Q 2391 481 2648 825 
Q 2906 1169 2906 1791 
z
M 3481 434 
Q 3481 -459 3084 -895 
Q 2688 -1331 1869 -1331 
Q 1566 -1331 1297 -1286 
Q 1028 -1241 775 -1147 
L 775 -588 
Q 1028 -725 1275 -790 
Q 1522 -856 1778 -856 
Q 2344 -856 2625 -561 
Q 2906 -266 2906 331 
L 2906 616 
Q 2728 306 2450 153 
Q 2172 0 1784 0 
Q 1141 0 747 490 
Q 353 981 353 1791 
Q 353 2603 747 3093 
Q 1141 3584 1784 3584 
Q 2172 3584 2450 3431 
Q 2728 3278 2906 2969 
L 2906 3500 
L 3481 3500 
L 3481 434 
z
" transform="scale(0.015625)"/>
      </defs>
      <use xlink:href="#DejaVuSans-44"/>
      <use xlink:href="#DejaVuSans-65" transform="translate(77.001953 0)"/>
      <use xlink:href="#DejaVuSans-6e" transform="translate(138.525391 0)"/>
      <use xlink:href="#DejaVuSans-6f" transform="translate(201.904297 0)"/>
      <use xlink:href="#DejaVuSans-69" transform="translate(263.085938 0)"/>
      <use xlink:href="#DejaVuSans-73" transform="translate(290.869141 0)"/>
      <use xlink:href="#DejaVuSans-69" transform="translate(342.96875 0)"/>
      <use xlink:href="#DejaVuSans-6e" transform="translate(370.751953 0)"/>
      <use xlink:href="#DejaVuSans-67" transform="translate(434.130859 0)"/>
      <use xlink:href="#DejaVuSans-20" transform="translate(497.607422 0)"/>
      <use xlink:href="#DejaVuSans-53" transform="translate(529.394531 0)"/>
      <use xlink:href="#DejaVuSans-53" transform="translate(592.871094 0)"/>
      <use xlink:href="#DejaVuSans-4c" transform="translate(656.347656 0)"/>
     </g>
    </g>
   </g>
  </g>
 </g>
 <defs>
  <clipPath id="p7953be13de">
   <rect x="40.298438" y="22.318125" width="425.3275" height="245.5"/>
  </clipPath>
 </defs>
</svg>
